<?xml version="1.0" encoding="UTF-8"?><svg xmlns="http://www.w3.org/2000/svg" viewBox="0 0 269.76 145.62"><defs><style>.d{fill:#fff;}.e{fill:#222;}</style></defs><g id="a"/><g id="b"><g id="c"><g><g><path class="d" d="M174.86,84.03l7.71,8.72-18.33,.02-7.67-9.32-.79-.96-11.31-13.75-1.1-1.34-.54-.66-5.28-6.41-4.39-5.33h-4.08v-13.75h27.85c6.27-1.28,10.63-7.1,10.63-13.75s-4.08-12.42-10.35-13.69l-.64-.05h-13.75V0h11c.93,0,1.84,.05,2.75,.14,5.13,.51,9.84,2.42,13.75,5.36,2.96,2.22,5.46,5.03,7.32,8.25,2.34,4.04,3.68,8.74,3.68,13.75s-1.34,9.7-3.68,13.75c-1.86,3.22-4.36,6.03-7.32,8.25-3.91,2.94-8.62,4.85-13.75,5.36-.9,.09-1.82,.14-2.75,.14h-2.86l5.61,6.82,5.09,6.18,.61,.74,11.31,13.75,.41,.49,.87,1.06Z"/><g><path class="e" d="M83.27,19.13c-.51-.46-.61-1.08-.33-1.58C84.94,13.98,93.44,.47,108.02,0h11.56s1.21-.07,2.02,.81,4.62,5.62,8.92,2.71c.29-.19,.47-.5,.55-.83,.15-.66,.65-1.83,2.26-2.29,.13-.04,.27-.02,.41-.03,.91-.08,3.04,.08,3.04,.08,0,0,2.49,0,2.59,3.23s0,9.68,0,9.68c0,0,.47,2.33-3,3.01h-.09l-3.46,.05s-1.13,.16-1.84-1.73c-.05-.12-.1-.45-.11-.59-.03-.57,.02-1-1.44-1.69-1.87-.88-7.98-1.1-9.6,3.72-.07,.21-.11,.56-.11,.78v2.85c0,.15-.12,.28-.28,.28h-11.77c-.17,0-.3-.14-.28-.31,.14-1.47,.43-7.63-4.84-7.22-5.87,.46-14.3,4.13-17.69,7.7-.1,.11-.27,.12-.38,.02l-1.19-1.08Z"/><path class="e" d="M107.03,24.54h13.47l3.4,62.9s.39,4.54-4.93,5.33h-8.78s-3.95-.59-3.85-6.22c.1-5.62,.69-62.01,.69-62.01Z"/></g></g><path class="e" d="M0,144.9v-51.12H23.47c2.5,0,4.8,.5,6.91,1.51,2.11,1.01,3.93,2.37,5.47,4.07,1.54,1.7,2.72,3.61,3.56,5.72,.84,2.11,1.26,4.25,1.26,6.41,0,1.97-.29,3.86-.86,5.69s-1.42,3.49-2.52,5c-1.11,1.51-2.42,2.82-3.96,3.92l10.8,18.79h-15.41l-9-15.7h-5.69v15.7H0Zm14.04-27.94h8.86c.58,0,1.13-.22,1.66-.65,.53-.43,.97-1.06,1.33-1.87,.36-.82,.54-1.8,.54-2.95s-.21-2.2-.61-2.99c-.41-.79-.91-1.4-1.51-1.84-.6-.43-1.19-.65-1.76-.65H14.04v10.94Z"/><path class="e" d="M64.71,145.62c-3.31,0-6.26-.51-8.86-1.52s-4.76-2.4-6.52-4.15c-1.75-1.75-3.08-3.76-4-6.03-.91-2.27-1.37-4.66-1.37-7.16,0-3.58,.79-6.87,2.38-9.86,1.58-2.99,3.91-5.4,6.98-7.21,3.07-1.81,6.86-2.72,11.38-2.72s8.3,.9,11.38,2.7c3.07,1.8,5.4,4.16,6.98,7.09,1.58,2.93,2.38,6.12,2.38,9.57,0,.71-.04,1.43-.11,2.16-.07,.73-.16,1.38-.25,1.95h-26.57c.1,1.28,.47,2.31,1.12,3.11,.65,.8,1.46,1.38,2.45,1.74,.98,.37,2,.55,3.06,.55,1.49,0,2.89-.33,4.21-1.01,1.32-.67,2.2-1.61,2.63-2.81l11.59,3.31c-1.01,2.02-2.41,3.79-4.21,5.33-1.8,1.54-3.92,2.75-6.37,3.64s-5.21,1.33-8.28,1.33Zm-6.48-23.4h12.53c-.14-1.17-.49-2.16-1.04-2.97-.55-.81-1.27-1.44-2.16-1.89-.89-.45-1.91-.68-3.06-.68s-2.17,.23-3.06,.68c-.89,.45-1.61,1.08-2.16,1.89-.55,.81-.9,1.8-1.04,2.97Z"/><path class="e" d="M127.04,144.9h-13.68v-20.79c0-1.83-.42-3.15-1.26-3.97-.84-.82-1.81-1.23-2.92-1.23-.77,0-1.58,.22-2.45,.65-.86,.43-1.66,1.03-2.38,1.81-.72,.77-1.3,1.66-1.73,2.66v20.88h-13.68v-37.37h12.31v5.65c.91-1.37,2.06-2.51,3.46-3.43,1.39-.92,3-1.62,4.82-2.09,1.82-.47,3.82-.71,5.98-.71,2.59,0,4.66,.45,6.19,1.35s2.69,2.05,3.46,3.47c.77,1.42,1.27,2.89,1.51,4.42s.36,2.94,.36,4.21v24.49Z"/><path class="e" d="M158.59,142.74c-1.25,.53-2.58,1.02-4,1.48-1.42,.46-2.86,.8-4.32,1.04-1.46,.24-2.89,.36-4.28,.36-2.06,0-3.96-.34-5.69-1.02-1.73-.68-3.11-1.81-4.14-3.38s-1.55-3.7-1.55-6.38v-17h-4.68v-10.3h4.68v-11.88h13.68v11.88h7.42v10.3h-7.42v12.08c0,1.2,.26,2.05,.79,2.53s1.25,.73,2.16,.73c.67,0,1.44-.12,2.3-.36,.86-.24,1.73-.53,2.59-.86l2.45,10.8Z"/><path class="e" d="M179.62,145.62c-3.36,0-6.34-.52-8.93-1.56-2.59-1.04-4.76-2.47-6.52-4.28-1.75-1.82-3.07-3.88-3.96-6.2-.89-2.31-1.33-4.75-1.33-7.29s.44-4.99,1.33-7.33c.89-2.34,2.21-4.4,3.96-6.2,1.75-1.79,3.92-3.21,6.52-4.25,2.59-1.04,5.57-1.56,8.93-1.56s6.4,.52,8.96,1.56c2.57,1.04,4.73,2.46,6.48,4.25,1.75,1.79,3.07,3.86,3.96,6.2,.89,2.34,1.33,4.78,1.33,7.33s-.44,4.98-1.33,7.29c-.89,2.31-2.21,4.38-3.96,6.2-1.75,1.82-3.91,3.25-6.48,4.28-2.57,1.04-5.56,1.56-8.96,1.56Zm-6.7-19.33c0,1.61,.29,3.01,.86,4.18,.58,1.18,1.37,2.08,2.38,2.7,1.01,.62,2.16,.93,3.46,.93s2.45-.31,3.46-.93c1.01-.62,1.8-1.52,2.38-2.7,.58-1.17,.86-2.57,.86-4.18s-.29-3.01-.86-4.18c-.58-1.17-1.37-2.07-2.38-2.7-1.01-.62-2.16-.93-3.46-.93s-2.45,.31-3.46,.93c-1.01,.62-1.8,1.52-2.38,2.7-.58,1.18-.86,2.57-.86,4.18Z"/><path class="e" d="M222.81,145.62c-3.36,0-6.34-.52-8.93-1.56-2.59-1.04-4.76-2.47-6.52-4.28-1.75-1.82-3.07-3.88-3.96-6.2-.89-2.31-1.33-4.75-1.33-7.29s.44-4.99,1.33-7.33c.89-2.34,2.21-4.4,3.96-6.2,1.75-1.79,3.92-3.21,6.52-4.25,2.59-1.04,5.57-1.56,8.93-1.56s6.4,.52,8.96,1.56c2.57,1.04,4.73,2.46,6.48,4.25,1.75,1.79,3.07,3.86,3.96,6.2,.89,2.34,1.33,4.78,1.33,7.33s-.44,4.98-1.33,7.29c-.89,2.31-2.21,4.38-3.96,6.2-1.75,1.82-3.91,3.25-6.48,4.28-2.57,1.04-5.56,1.56-8.96,1.56Zm-6.7-19.33c0,1.61,.29,3.01,.86,4.18,.58,1.18,1.37,2.08,2.38,2.7,1.01,.62,2.16,.93,3.46,.93s2.45-.31,3.46-.93c1.01-.62,1.8-1.52,2.38-2.7,.58-1.17,.86-2.57,.86-4.18s-.29-3.01-.86-4.18c-.58-1.17-1.37-2.07-2.38-2.7-1.01-.62-2.16-.93-3.46-.93s-2.45,.31-3.46,.93c-1.01,.62-1.8,1.52-2.38,2.7-.58,1.18-.86,2.57-.86,4.18Z"/><path class="e" d="M247.08,92.34h13.68v37.51c0,1.39,.3,2.46,.9,3.2,.6,.74,1.48,1.12,2.63,1.12,.58,0,1.2-.1,1.87-.29,.67-.19,1.3-.46,1.87-.79l1.73,10.08c-1.63,.77-3.47,1.37-5.51,1.8-2.04,.43-3.97,.65-5.8,.65-3.65,0-6.46-.95-8.42-2.84-1.97-1.9-2.95-4.6-2.95-8.1v-42.34Z"/></g></g></g></svg>