<svg xmlns="http://www.w3.org/2000/svg" viewBox="0 0 329.63 95.18"><defs><style>.cls-1{fill:#fab328;}.cls-1,.cls-2{stroke:#fab328;stroke-miterlimit:10;}.cls-2{fill:#222;stroke-width:2.2px;}.cls-3{fill:#fff;}</style></defs><g id="Layer_2" data-name="Layer 2"><g id="Layer_6" data-name="Layer 6"><path class="cls-1" d="M94.58,85.87l7.78,8.79-18.49,0-7.74-9.4-.79-1L63.93,70.44l-1.11-1.35-.55-.67L57,62l-4.43-5.38H48.4V42.71H76.5c6.33-1.28,10.73-7.15,10.73-13.86S83.11,16.31,76.78,15L76.13,15H62.27V1.11H73.36c.94,0,1.86,0,2.77.13A27.74,27.74,0,0,1,90,51a27.53,27.53,0,0,1-13.87,5.4,25.31,25.31,0,0,1-2.77.14H70.48l5.65,6.88,5.13,6.24.62.75L93.29,84.31l.41.5Z"/><path class="cls-2" d="M1.58,20.23a1.26,1.26,0,0,1-.33-1.57c2-3.58,10.5-17.09,25.08-17.56H37.89a2.74,2.74,0,0,1,2,.81c.78.84,4.62,5.62,8.93,2.71a1.42,1.42,0,0,0,.55-.84,3.06,3.06,0,0,1,2.26-2.29,2.73,2.73,0,0,1,.41,0,28.2,28.2,0,0,1,3,.08s2.49,0,2.59,3.22,0,9.68,0,9.68.46,2.33-3,3h-.09l-3.46.05s-1.14.16-1.85-1.73a3.63,3.63,0,0,1-.1-.59c0-.56,0-1-1.45-1.69-1.86-.88-8-1.1-9.59,3.72A3,3,0,0,0,38,18v2.85a.28.28,0,0,1-.28.28H26a.29.29,0,0,1-.29-.31c.15-1.47.43-7.63-4.84-7.22-5.87.46-14.3,4.13-17.69,7.7a.26.26,0,0,1-.38,0Z"/><path class="cls-2" d="M25.34,25.64H38.81l3.4,62.9s.4,4.54-4.93,5.33H28.5s-3.95-.59-3.85-6.22S25.34,25.64,25.34,25.64Z"/><path class="cls-3" d="M124.59,94.58a24.23,24.23,0,0,1-8.86-1.52,18.94,18.94,0,0,1-6.52-4.15,17.83,17.83,0,0,1-4-6,18.89,18.89,0,0,1-1.37-7.16,20.74,20.74,0,0,1,2.38-9.87,18.16,18.16,0,0,1,7-7.21,22.07,22.07,0,0,1,11.38-2.72A22.25,22.25,0,0,1,136,58.61a18.19,18.19,0,0,1,7,7.1,20.64,20.64,0,0,1,2.26,11.73c-.07.73-.15,1.38-.25,2H118.39a5.46,5.46,0,0,0,1.12,3.11A5.52,5.52,0,0,0,122,84.24a8.59,8.59,0,0,0,3.06.55,9,9,0,0,0,4.21-1A5.06,5.06,0,0,0,131.86,81l11.59,3.32a16.89,16.89,0,0,1-4.21,5.32,20.5,20.5,0,0,1-6.37,3.64A24.13,24.13,0,0,1,124.59,94.58Zm-6.48-23.4h12.52a6.6,6.6,0,0,0-1-3,5.75,5.75,0,0,0-2.16-1.9,7.32,7.32,0,0,0-6.12,0,5.75,5.75,0,0,0-2.16,1.9A6.6,6.6,0,0,0,118.11,71.18Z"/><path class="cls-3" d="M186.91,93.86H173.23V73.07a5.36,5.36,0,0,0-1.26-4,4,4,0,0,0-2.92-1.23,5.54,5.54,0,0,0-2.45.65,8.37,8.37,0,0,0-2.37,1.8A9.18,9.18,0,0,0,162.5,73V93.86H148.82V56.49h12.31v5.66a12.19,12.19,0,0,1,3.46-3.44,15.84,15.84,0,0,1,4.82-2.08,23.52,23.52,0,0,1,6-.71,12.33,12.33,0,0,1,6.19,1.34A9,9,0,0,1,185,60.73a13.85,13.85,0,0,1,1.51,4.43,27.4,27.4,0,0,1,.36,4.21Z"/><path class="cls-3" d="M218.47,91.7c-1.25.53-2.59,1-4,1.48a30.86,30.86,0,0,1-4.32,1,26.52,26.52,0,0,1-4.29.36,15.34,15.34,0,0,1-5.68-1A8.59,8.59,0,0,1,196,90.17a11.43,11.43,0,0,1-1.55-6.38v-17h-4.68V56.49h4.68V44.61h13.68V56.49h7.41v10.3h-7.41V78.87A3.33,3.33,0,0,0,209,81.4a3.1,3.1,0,0,0,2.16.73,8.82,8.82,0,0,0,2.31-.36A27.18,27.18,0,0,0,216,80.9Z"/><path class="cls-3" d="M239.49,94.58A23.84,23.84,0,0,1,230.56,93a18.11,18.11,0,0,1-10.48-10.48,20.31,20.31,0,0,1-1.33-7.29,20.65,20.65,0,0,1,1.33-7.33,17.82,17.82,0,0,1,4-6.19,18.72,18.72,0,0,1,6.52-4.25,26.43,26.43,0,0,1,17.89,0,18.64,18.64,0,0,1,6.48,4.25,17.82,17.82,0,0,1,4,6.19,20.43,20.43,0,0,1,1.33,7.33,20.1,20.1,0,0,1-1.33,7.29A18.19,18.19,0,0,1,248.45,93,23.75,23.75,0,0,1,239.49,94.58Zm-6.7-19.33a9.34,9.34,0,0,0,.87,4.18,6.27,6.27,0,0,0,2.37,2.7,6.88,6.88,0,0,0,6.91,0,6.36,6.36,0,0,0,2.38-2.7,10.59,10.59,0,0,0,0-8.36,6.36,6.36,0,0,0-2.38-2.7,6.88,6.88,0,0,0-6.91,0,6.27,6.27,0,0,0-2.37,2.7A9.34,9.34,0,0,0,232.79,75.25Z"/><path class="cls-3" d="M282.68,94.58A23.84,23.84,0,0,1,273.75,93a18.13,18.13,0,0,1-10.47-10.48A20.1,20.1,0,0,1,262,75.25a20.43,20.43,0,0,1,1.33-7.33,17.68,17.68,0,0,1,4-6.19,18.58,18.58,0,0,1,6.51-4.25,26.45,26.45,0,0,1,17.9,0,18.82,18.82,0,0,1,6.48,4.25,17.82,17.82,0,0,1,4,6.19,20.65,20.65,0,0,1,1.33,7.33,20.31,20.31,0,0,1-1.33,7.29A18.19,18.19,0,0,1,291.65,93,23.8,23.8,0,0,1,282.68,94.58ZM276,75.25a9.34,9.34,0,0,0,.86,4.18,6.36,6.36,0,0,0,2.38,2.7,6.88,6.88,0,0,0,6.91,0,6.27,6.27,0,0,0,2.37-2.7,10.48,10.48,0,0,0,0-8.36,6.27,6.27,0,0,0-2.37-2.7,6.88,6.88,0,0,0-6.91,0,6.36,6.36,0,0,0-2.38,2.7A9.34,9.34,0,0,0,276,75.25Z"/><path class="cls-3" d="M307,41.3h13.68V78.81a5,5,0,0,0,.9,3.21,3.19,3.19,0,0,0,2.63,1.11,6.84,6.84,0,0,0,1.87-.28,7.81,7.81,0,0,0,1.87-.8l1.73,10.08a24.91,24.91,0,0,1-5.51,1.8,27.46,27.46,0,0,1-5.79.65q-5.47,0-8.43-2.84c-2-1.9-2.95-4.6-2.95-8.1Z"/></g></g></svg>