<?xml version="1.0" encoding="utf-8"?>
<!-- Generator: Adobe Illustrator 26.0.3, SVG Export Plug-In . SVG Version: 6.00 Build 0)  -->
<svg version="1.1" id="Layer_1" xmlns="http://www.w3.org/2000/svg" xmlns:xlink="http://www.w3.org/1999/xlink" x="0px" y="0px"
	 viewBox="0 0 200 200" style="enable-background:new 0 0 200 200;" xml:space="preserve">
<style type="text/css">
	.st0{fill:#F0AE30;stroke:#212121;stroke-miterlimit:10;}
	.st1{fill:#FFFFFF;stroke:#212121;stroke-linecap:round;stroke-linejoin:round;stroke-miterlimit:10;}
	.st2{fill:#FFFFFF;}
	.st3{fill:#212121;stroke:#212121;stroke-miterlimit:10;}
	.st4{fill:#409ECF;stroke:#212121;stroke-linecap:round;stroke-linejoin:round;stroke-miterlimit:10;}
	.st5{fill:#212121;}
</style>
<g>
	<g>
		<circle class="st0" cx="99.6" cy="80.92" r="75.9"/>
	</g>
	<g>
		<path class="st1" d="M54.88,114.72c4.68-0.42,8.72-0.44,12.18-0.2c13.21,0.91,18.07,5.52,18.07,5.52
			c1.92,1.31,3.74,2.45,5.49,3.43c6.81,3.85,12.3,5.3,16.64,5.45c9.95,0.36,13.87-6.09,13.87-6.09l-0.49-0.85l-6.51-11.33
			l-1.37-2.39l-2.88-5.01l-2.61-4.55l-0.07-0.12l-0.12-0.21l-5.03-8.75l-5.43-9.45l-5.99-10.43l-3.64,1.79
			c-6.77,4.01-13.84,6.02-19.92,6.98c-4.97,0.8-9.27,0.89-12.18,0.81v5.28c2.2,4.02,3.01,8.01,2.99,11.7
			c-0.02,4.8-1.44,9.1-2.99,12.4"/>
		<path class="st2" d="M126.41,76.49c0,0-11.9-1.4-19.15-0.08c-1.07,0.2-5.24,2.15-5.42,3.25c0,0-4.56,13.28,24.57,10.3
			c0,0,22.59,0.43,17.04-14.12c0,0-9.56-13.22-36.19-10.05l-5.24,12.77L126.41,76.49z"/>
		<path class="st3" d="M119.84,43.26c0,8.01-5.18,14.89-12.58,17.89v72.42c0,0.85-0.74,1.54-1.65,1.54H92.27
			c-0.91,0-1.65-0.69-1.65-1.54V61.15c-7.41-3-12.58-9.88-12.58-17.89c0-6.75,3.68-12.7,9.27-16.2c1.41-0.89,3.32,0.05,3.32,1.64
			v8.67c0,3.24,2.84,5.89,6.32,5.89h4.01c3.49,0,6.31-2.64,6.31-5.89V28.7c0-1.59,1.9-2.53,3.32-1.64
			C116.17,30.56,119.84,36.51,119.84,43.26z"/>
		<path class="st1" d="M135.05,108.26c0,0,3.72,11.92-9.77,13.74c0,0-31.38,1.37-22.12-13.74"/>
		<path class="st1" d="M137.59,98.57c0,0,4,11.04-10.51,12.73c0,0-33.75,1.27-23.79-12.73"/>
		<path class="st1" d="M140.28,87.17c0,0,4.3,12.03-11.29,13.87c0,0-36.26,1.39-25.56-13.87"/>
		<path class="st1" d="M126.41,76.49c0,0-11.9-1.4-19.15-0.08c-1.07,0.2-5.24,2.15-5.42,3.25c0,0-4.56,13.28,24.57,10.3
			c0,0,22.59,0.43,17.04-14.12c0,0-9.56-13.22-36.19-10.05"/>
		<path class="st1" d="M89.36,77.85c0,0,32.69,8.92,29.52,19.62c0,0-0.99,16.25-39.83-5.75"/>
		<rect x="54.88" y="77.85" class="st4" width="12.18" height="37.3"/>
	</g>
</g>
<g>
	<path class="st5" d="M20.41,196.56V165.4h13.83c1.41,0,2.71,0.29,3.93,0.88c1.21,0.59,2.27,1.38,3.16,2.37
		c0.89,1,1.58,2.11,2.06,3.34c0.48,1.23,0.72,2.49,0.72,3.78c0,1.32-0.23,2.58-0.68,3.78c-0.45,1.2-1.1,2.26-1.95,3.18
		s-1.84,1.63-2.99,2.13l7.11,11.72h-6.67l-6.41-10.45h-6.06v10.45H20.41z M26.47,180.8h7.59c0.76,0,1.43-0.23,2.02-0.68
		c0.58-0.45,1.05-1.06,1.41-1.82c0.35-0.76,0.53-1.61,0.53-2.55c0-0.97-0.21-1.83-0.61-2.59c-0.41-0.76-0.92-1.36-1.54-1.8
		c-0.61-0.44-1.29-0.66-2.02-0.66h-7.38V180.8z"/>
	<path class="st5" d="M58.91,197c-1.84,0-3.51-0.31-5-0.93c-1.49-0.62-2.77-1.48-3.82-2.56s-1.86-2.32-2.41-3.71
		c-0.56-1.39-0.83-2.88-0.83-4.47c0-2.14,0.49-4.12,1.47-5.93s2.37-3.26,4.17-4.34s3.96-1.63,6.47-1.63c2.49,0,4.62,0.54,6.41,1.63
		s3.16,2.51,4.13,4.28c0.96,1.77,1.45,3.7,1.45,5.78c0,0.38-0.01,0.73-0.04,1.07c-0.03,0.33-0.06,0.62-0.09,0.85H53.07
		c0.09,1.2,0.42,2.22,0.99,3.07s1.3,1.5,2.2,1.95c0.89,0.46,1.84,0.69,2.83,0.69c1.2,0,2.32-0.29,3.36-0.86
		c1.04-0.57,1.75-1.34,2.13-2.3l5,1.4c-0.53,1.17-1.3,2.21-2.33,3.12s-2.24,1.62-3.64,2.13C62.2,196.75,60.64,197,58.91,197z
		 M52.9,183.35h12.03c-0.12-1.14-0.45-2.14-0.99-2.98c-0.54-0.84-1.25-1.5-2.13-1.97c-0.88-0.47-1.86-0.71-2.94-0.71
		c-1.05,0-2.01,0.24-2.88,0.71c-0.86,0.47-1.57,1.13-2.11,1.97C53.34,181.21,53.01,182.21,52.9,183.35z"/>
	<path class="st5" d="M95.91,196.56h-5.88v-12.72c0-1.82-0.31-3.14-0.94-3.98c-0.63-0.84-1.53-1.25-2.7-1.25
		c-0.79,0-1.59,0.2-2.39,0.6c-0.8,0.4-1.52,0.95-2.15,1.65c-0.63,0.7-1.12,1.51-1.47,2.42v13.28h-5.84v-22.78h5.31v4.25
		c0.58-0.98,1.33-1.81,2.24-2.47c0.91-0.67,1.95-1.19,3.12-1.56c1.17-0.38,2.43-0.56,3.78-0.56c1.43,0,2.61,0.25,3.53,0.76
		c0.92,0.51,1.62,1.19,2.11,2.06c0.48,0.87,0.82,1.83,1.01,2.89c0.19,1.06,0.29,2.12,0.29,3.19V196.56z"/>
	<path class="st5" d="M114.7,195.42c-0.53,0.23-1.13,0.48-1.82,0.72c-0.69,0.25-1.43,0.45-2.24,0.61c-0.81,0.16-1.62,0.24-2.44,0.24
		c-1.11,0-2.12-0.19-3.03-0.57c-0.91-0.38-1.63-0.98-2.17-1.81c-0.54-0.83-0.81-1.91-0.81-3.24v-13.13h-2.99v-4.48h2.99v-7.46h5.93
		v7.46h4.83v4.48h-4.83v11.14c0.03,0.78,0.25,1.35,0.66,1.71c0.41,0.36,0.94,0.54,1.58,0.54c0.58,0,1.17-0.11,1.76-0.33
		c0.58-0.22,1.07-0.42,1.45-0.59L114.7,195.42z"/>
	<path class="st5" d="M128.09,197c-1.87,0-3.55-0.32-5.03-0.96c-1.48-0.64-2.74-1.5-3.8-2.61c-1.05-1.1-1.85-2.35-2.39-3.75
		c-0.54-1.4-0.81-2.89-0.81-4.45c0-1.62,0.27-3.14,0.81-4.56c0.54-1.42,1.33-2.67,2.37-3.75c1.04-1.09,2.3-1.94,3.8-2.56
		c1.49-0.62,3.16-0.93,5-0.93c1.9,0,3.59,0.31,5.07,0.93c1.48,0.62,2.74,1.48,3.8,2.56c1.05,1.08,1.86,2.34,2.41,3.75
		c0.56,1.42,0.83,2.94,0.83,4.56c0,1.56-0.28,3.05-0.83,4.45c-0.56,1.4-1.36,2.66-2.41,3.75c-1.05,1.1-2.32,1.97-3.8,2.61
		C131.64,196.68,129.96,197,128.09,197z M122.08,185.24c0,1.29,0.26,2.46,0.79,3.49c0.53,1.03,1.25,1.84,2.17,2.41
		c0.92,0.57,1.94,0.86,3.05,0.86s2.12-0.29,3.03-0.88c0.91-0.59,1.63-1.39,2.17-2.41c0.54-1.02,0.81-2.19,0.81-3.51
		c0-1.29-0.27-2.45-0.81-3.47c-0.54-1.02-1.27-1.82-2.17-2.41c-0.91-0.59-1.93-0.88-3.07-0.88c-1.11,0-2.12,0.29-3.03,0.88
		c-0.91,0.59-1.62,1.39-2.15,2.41C122.34,182.75,122.08,183.92,122.08,185.24z"/>
	<path class="st5" d="M154.69,197c-1.87,0-3.55-0.32-5.03-0.96c-1.48-0.64-2.74-1.5-3.8-2.61c-1.05-1.1-1.85-2.35-2.39-3.75
		c-0.54-1.4-0.81-2.89-0.81-4.45c0-1.62,0.27-3.14,0.81-4.56c0.54-1.42,1.33-2.67,2.37-3.75c1.04-1.09,2.3-1.94,3.8-2.56
		c1.49-0.62,3.16-0.93,5-0.93c1.9,0,3.59,0.31,5.07,0.93c1.48,0.62,2.74,1.48,3.8,2.56c1.05,1.08,1.86,2.34,2.41,3.75
		c0.56,1.42,0.83,2.94,0.83,4.56c0,1.56-0.28,3.05-0.83,4.45c-0.56,1.4-1.36,2.66-2.41,3.75c-1.05,1.1-2.32,1.97-3.8,2.61
		C158.24,196.68,156.57,197,154.69,197z M148.68,185.24c0,1.29,0.26,2.46,0.79,3.49c0.53,1.03,1.25,1.84,2.17,2.41
		c0.92,0.57,1.94,0.86,3.05,0.86s2.12-0.29,3.03-0.88c0.91-0.59,1.63-1.39,2.17-2.41c0.54-1.02,0.81-2.19,0.81-3.51
		c0-1.29-0.27-2.45-0.81-3.47c-0.54-1.02-1.27-1.82-2.17-2.41c-0.91-0.59-1.93-0.88-3.07-0.88c-1.11,0-2.12,0.29-3.03,0.88
		c-0.91,0.59-1.62,1.39-2.15,2.41C148.94,182.75,148.68,183.92,148.68,185.24z"/>
	<path class="st5" d="M170.63,164.52h5.88v24.71c0,1.09,0.17,1.81,0.53,2.18s0.82,0.55,1.4,0.55c0.53,0,1.03-0.06,1.51-0.18
		c0.48-0.12,0.92-0.28,1.29-0.48l0.79,4.52c-0.79,0.38-1.71,0.67-2.74,0.88c-1.04,0.2-2,0.31-2.88,0.31c-1.84,0-3.27-0.49-4.28-1.48
		c-1.01-0.98-1.51-2.37-1.51-4.16V164.52z"/>
</g>
</svg>
